<?xml version="1.0" standalone="no"?>
<svg viewBox="0 0 200 200" xmlns="http://www.w3.org/2000/svg">
  <path fill="#8A3FFC" d="M46.5,-63.5C60.8,-53.7,73.2,-40.7,75.8,-26.2C78.4,-11.6,71.1,4.6,64.5,19.8C58,35.1,52.2,49.4,41.5,57.2C30.9,64.9,15.4,66.1,0,66.1C-15.5,66.2,-31,65.1,-44.8,58.3C-58.6,51.6,-70.8,39.3,-73.6,25.2C-76.3,11.2,-69.6,-4.6,-64.3,-20.9C-59,-37.1,-55.1,-53.8,-44.6,-64.8C-34.1,-75.9,-17.1,-81.2,-0.5,-80.6C16.1,-79.9,32.2,-73.3,46.5,-63.5Z" transform="translate(100 100)" />
</svg>
