<?xml version="1.0" standalone="no"?>
<svg viewBox="0 0 200 200" xmlns="http://www.w3.org/2000/svg">
  <path fill="#8A3FFC" d="M42.5,-59.2C50.6,-52.6,49.6,-34.2,51.9,-18.8C54.2,-3.4,59.9,8.9,57.7,19.7C55.5,30.5,45.5,39.6,34.6,51.2C23.6,62.8,11.8,76.9,-0.4,77.5C-12.6,78,-25.3,65.1,-38.4,54.2C-51.6,43.3,-65.2,34.5,-70,22.2C-74.8,9.9,-70.7,-5.9,-63.8,-18.7C-56.9,-31.6,-47.1,-41.5,-36,-47.1C-24.9,-52.7,-12.5,-53.8,2.4,-57.1C17.2,-60.3,34.4,-65.7,42.5,-59.2Z" transform="translate(100 100)" />
</svg>
